<?xml version="1.0" standalone="no"?>
<!DOCTYPE svg PUBLIC "-//W3C//DTD SVG 20010904//EN"
 "http://www.w3.org/TR/2001/REC-SVG-20010904/DTD/svg10.dtd">
<svg version="1.0" xmlns="http://www.w3.org/2000/svg"
 width="958.000000pt" height="958.000000pt" viewBox="0 0 958.000000 958.000000"
 preserveAspectRatio="xMidYMid meet">
<metadata>
Created by potrace 1.14, written by Peter Selinger 2001-2017
</metadata>
<g transform="translate(0.000000,958.000000) scale(0.100000,-0.100000)"
fill="#000000" stroke="none">
<path d="M4735 8747 c-16 -6 -54 -24 -85 -42 -30 -18 -75 -44 -100 -57 -25
-14 -61 -34 -80 -45 -19 -11 -64 -36 -100 -55 -60 -32 -630 -349 -710 -395
-19 -11 -62 -35 -95 -53 -134 -75 -157 -109 -156 -237 0 -42 2 -77 4 -79 2 -3
78 -5 168 -6 155 -1 166 0 204 22 22 12 65 36 95 53 30 16 170 93 310 172 320
178 337 188 380 212 52 29 192 106 215 118 16 9 39 0 130 -51 61 -33 133 -73
160 -89 28 -15 215 -119 417 -232 290 -161 375 -204 405 -205 21 0 98 0 171 1
l132 1 0 68 c-1 94 -13 139 -51 178 -18 19 -112 78 -208 131 -97 53 -196 108
-220 121 -25 14 -67 38 -93 53 -27 16 -51 29 -53 29 -2 0 -26 13 -52 28 -26
16 -79 46 -118 67 -38 21 -95 52 -125 69 -418 233 -404 226 -460 229 -30 2
-68 -1 -85 -6z"/>
<path d="M3409 7251 c0 -36 0 -308 0 -603 -1 -602 -3 -582 71 -639 34 -26
1016 -577 1190 -667 78 -40 90 -44 145 -40 63 4 46 -5 490 243 28 16 104 58
170 95 66 37 143 80 170 95 28 15 75 41 105 58 30 16 64 35 75 42 11 7 56 32
100 56 184 99 210 117 240 158 l30 43 3 613 2 613 -185 -1 -185 0 0 -528 0
-527 -32 -20 c-18 -11 -58 -33 -88 -49 -30 -17 -75 -41 -100 -55 -191 -106
-278 -155 -295 -165 -11 -6 -36 -20 -55 -30 -19 -11 -130 -72 -245 -136 l-211
-117 -119 66 c-66 36 -149 82 -185 101 -36 20 -69 39 -75 43 -5 4 -41 24 -80
45 -38 21 -126 69 -195 108 -69 38 -159 88 -200 110 -41 22 -92 51 -112 64
-21 13 -42 23 -48 23 -13 0 -12 -41 -14 545 l-1 520 -182 1 -183 2 -1 -67z"/>
<path d="M9 3767 c0 -23 -1 -353 -1 -734 0 -759 -1 -748 61 -844 45 -71 143
-132 235 -145 54 -8 801 -8 848 0 156 25 259 127 285 281 5 28 9 372 8 765 l0
715 -165 2 -165 1 1 -724 c1 -664 -1 -725 -16 -739 -14 -13 -62 -15 -306 -15
-488 -1 -433 -5 -448 33 -10 25 -12 188 -12 739 l1 706 -162 1 -163 0 -1 -42z"/>
<path d="M1992 2924 l-1 -884 22 -1 c25 -1 256 -1 275 0 9 1 12 132 12 622 l0
622 114 -174 c63 -96 170 -259 239 -364 69 -104 200 -305 292 -445 92 -140
169 -257 171 -259 6 -6 291 -4 301 2 6 4 10 1723 4 1760 0 4 -70 7 -153 7
l-153 0 1 -620 c0 -341 0 -620 0 -620 -1 0 -62 92 -136 205 -74 113 -207 315
-295 448 -88 134 -211 320 -273 414 l-112 171 -154 0 -154 0 0 -884z"/>
<path d="M4063 2924 c0 -642 3 -884 11 -885 13 -1 265 -1 284 0 9 1 12 185 12
885 l0 884 -154 0 -153 1 0 -885z"/>
<path d="M4851 3664 c0 -142 0 -144 22 -145 12 0 121 -1 242 -2 l220 -2 2
-720 c1 -396 2 -729 2 -740 1 -19 7 -20 143 -18 79 1 148 2 153 2 7 1 10 251
10 736 0 646 2 736 15 739 8 3 115 4 238 4 122 0 225 1 228 4 4 4 7 193 5 265
l-1 22 -639 -1 -639 0 -1 -144z"/>
<path d="M6559 3803 c-1 -5 -2 -403 -3 -885 -1 -586 2 -878 9 -879 5 0 276 -1
600 -1 l590 -1 3 146 3 147 -388 0 c-214 0 -415 0 -449 0 l-61 0 0 240 0 240
76 1 c42 0 196 0 344 0 l267 0 1 62 c0 34 1 100 1 146 l0 84 -344 1 -343 1 -1
206 -1 206 431 1 c237 0 434 1 439 1 4 1 7 66 7 145 l0 144 -590 1 c-324 1
-591 -2 -591 -6z"/>
<path d="M8230 3808 c-5 -27 0 -1761 4 -1765 8 -8 989 -7 1049 1 105 15 212
88 253 174 37 77 40 140 39 737 -2 580 -2 580 -25 640 -31 79 -105 154 -185
186 l-60 23 -537 4 c-296 2 -538 2 -538 0z m997 -303 c17 -13 18 -50 19 -579
1 -517 0 -567 -15 -580 -14 -13 -65 -16 -332 -16 -172 -1 -325 -1 -339 -1
l-25 1 1 593 c1 325 2 592 3 593 0 1 152 1 336 1 259 1 339 -2 352 -12z"/>
<path d="M30 1413 c-13 -3 -15 -41 -14 -291 1 -158 2 -290 3 -294 0 -5 17 -8
36 -8 l35 0 1 73 c0 39 0 134 0 210 0 75 2 137 4 137 3 0 52 -95 111 -211 58
-117 109 -208 113 -203 5 5 56 103 115 217 58 115 106 207 107 205 0 -1 1 -97
2 -213 l2 -210 36 -2 36 -3 0 297 0 298 -41 -4 -41 -4 -108 -220 -109 -220
-109 219 c-97 193 -113 220 -137 224 -15 3 -34 4 -42 3z"/>
<path d="M1373 1407 c-4 -7 -7 -389 -4 -553 1 -30 3 -32 40 -32 l39 -1 0 220
c0 121 1 222 4 224 2 2 70 -97 152 -220 l148 -224 39 1 39 0 0 293 0 293 -22
4 c-59 10 -57 16 -60 -225 l-3 -221 -148 222 c-81 122 -151 222 -155 223 -42
5 -64 3 -69 -4z"/>
<path d="M2033 1412 l-23 -3 0 -260 0 -259 29 -32 29 -33 154 -2 c84 -1 168 3
186 9 63 19 65 30 64 315 -1 172 -4 258 -12 263 -6 3 -23 5 -39 2 l-28 -4 -1
-250 c-1 -137 -4 -253 -6 -257 -3 -5 -259 -7 -288 -2 -5 0 -8 117 -8 259 0
283 4 263 -57 254z"/>
<path d="M2673 1412 l-22 -3 0 -292 -1 -292 40 -2 c32 -2 40 1 41 15 0 9 1 69
2 132 l2 115 100 2 c55 1 111 2 125 2 23 1 26 5 26 36 l0 35 -127 0 -127 0 0
90 0 90 146 0 147 0 1 35 c1 26 -3 35 -15 35 -97 3 -321 4 -338 2z"/>
<path d="M3285 1396 c-4 -11 -12 -34 -20 -51 -7 -16 -34 -86 -60 -155 -26 -69
-67 -176 -91 -239 -24 -63 -44 -117 -44 -121 0 -4 16 -7 36 -6 33 1 38 5 54
46 l18 45 144 3 145 3 21 -49 c20 -45 23 -48 61 -50 23 -2 41 1 41 6 0 9 -71
170 -141 320 -22 46 -39 85 -39 87 0 2 -18 41 -39 88 -42 89 -74 117 -86 73z
m53 -194 c12 -27 37 -83 56 -125 20 -42 36 -79 36 -82 0 -2 -49 -4 -110 -4
-60 0 -110 1 -110 2 0 2 40 111 71 195 13 34 26 62 30 62 3 0 16 -22 27 -48z"/>
<path d="M3768 1408 c-18 -3 -43 -18 -55 -33 -22 -25 -23 -32 -23 -250 0 -138
4 -233 11 -248 20 -45 44 -51 204 -53 200 -2 225 11 225 122 l0 44 -39 0 c-39
0 -39 0 -39 -42 -1 -22 -5 -44 -11 -47 -6 -4 -68 -7 -138 -6 l-128 1 -3 222
-2 222 140 0 140 0 1 -32 c1 -18 1 -38 0 -45 -2 -13 25 -20 57 -15 46 9 18
145 -33 158 -32 8 -271 10 -307 2z"/>
<path d="M4263 1412 c-19 -3 -23 -10 -23 -38 l0 -34 85 0 85 0 0 -260 0 -261
39 2 39 3 0 220 c0 122 1 238 1 258 l1 37 83 3 82 3 0 34 0 34 -185 1 c-102 0
-195 0 -207 -2z"/>
<path d="M4811 1411 l-35 -6 1 -250 c1 -155 5 -261 12 -278 18 -47 58 -56 232
-53 166 2 189 8 209 56 6 16 9 119 8 280 l-3 254 -22 -1 c-13 0 -30 -1 -38 -2
-13 -1 -15 -36 -15 -256 0 -140 -3 -256 -7 -256 -40 -6 -286 -2 -290 4 -3 5
-6 121 -6 258 0 137 -3 251 -6 252 -3 2 -22 1 -40 -2z"/>
<path d="M5453 1412 l-33 -3 0 -293 0 -293 40 -1 40 -2 0 120 0 120 43 0 c38
-1 45 -5 74 -43 18 -24 44 -57 58 -73 14 -16 42 -50 63 -75 35 -44 40 -47 85
-47 l48 -1 -50 62 c-28 34 -71 88 -96 120 l-46 57 35 0 c94 0 118 34 118 170
0 115 -12 153 -52 170 -26 11 -253 19 -327 12z m298 -82 c0 -5 1 -39 1 -75 0
-36 -1 -78 -1 -95 l-1 -30 -125 0 -125 0 0 105 0 105 125 0 c76 0 125 -4 126
-10z"/>
<path d="M6017 1412 c-16 -3 -17 -23 -15 -295 l3 -292 35 0 35 0 2 292 c1 291
1 291 -20 295 -12 2 -30 2 -40 0z"/>
<path d="M6287 1405 c-10 -10 -14 -333 -8 -558 1 -26 3 -28 39 -25 l37 3 1
218 c1 120 3 219 5 222 3 2 71 -97 152 -219 l148 -223 39 -1 40 -2 0 295 0
295 -40 0 -40 0 0 -227 0 -227 -149 226 c-136 205 -152 226 -181 230 -17 3
-37 0 -43 -7z"/>
<path d="M6992 1408 c-16 -4 -37 -17 -48 -29 -17 -19 -19 -41 -22 -254 l-3
-234 29 -32 30 -33 152 -3 c169 -2 202 6 222 55 13 35 16 231 3 241 -5 4 -50
7 -100 7 -86 -1 -89 -2 -95 -26 -11 -43 -2 -50 61 -50 l59 0 1 -32 c1 -51 -2
-113 -7 -118 -3 -2 -66 -5 -140 -5 l-134 0 0 222 0 223 140 0 140 0 1 -27 c1
-16 1 -36 0 -45 -2 -15 6 -18 38 -18 43 0 45 3 42 60 -3 41 -21 77 -45 90 -26
13 -278 20 -324 8z"/>
<path d="M7854 1412 l-32 -3 2 -292 1 -292 37 -2 37 -2 3 127 3 127 138 0 137
0 0 -126 0 -127 39 1 39 1 0 292 0 292 -28 4 c-49 7 -50 5 -50 -133 l0 -129
-45 0 c-25 -1 -83 -1 -130 -1 -47 0 -89 0 -95 1 -6 0 -10 50 -10 129 0 72 -3
131 -7 133 -5 2 -22 2 -39 0z"/>
<path d="M8458 1412 c-17 -3 -18 -24 -18 -258 0 -291 3 -307 68 -323 20 -5 98
-9 172 -9 148 0 189 10 209 54 7 17 11 110 11 279 0 277 2 267 -57 257 l-23
-4 0 -254 c0 -235 -1 -254 -17 -255 -57 -4 -266 -3 -274 1 -5 3 -10 120 -11
260 -3 245 -4 253 -23 255 -11 0 -28 -1 -37 -3z"/>
<path d="M9199 1412 l-117 -3 2 -292 1 -292 160 -1 c186 -2 218 7 243 65 22
52 20 150 -5 197 -20 38 -20 39 -1 65 23 31 27 153 6 196 -30 62 -70 70 -289
65z m221 -162 l0 -90 -130 0 -130 0 0 90 0 90 130 0 130 0 0 -90z m-2 -257
l-3 -98 -125 0 -125 0 -3 98 -3 97 131 0 131 0 -3 -97z"/>
<path d="M935 1363 c-9 -27 -23 -61 -29 -78 -7 -16 -19 -46 -26 -65 -6 -19
-16 -44 -21 -55 -14 -32 -129 -336 -129 -341 0 -3 17 -4 39 -3 36 3 39 5 56
51 l17 48 144 0 145 0 22 -50 c21 -48 23 -49 64 -48 l42 1 -26 56 c-13 31 -28
65 -33 77 -5 11 -26 58 -47 105 -22 46 -66 144 -99 216 -49 110 -63 133 -80
133 -16 0 -25 -11 -39 -47z m104 -243 c64 -141 70 -128 -58 -129 l-111 -1 10
22 c5 13 25 66 44 118 54 149 48 138 63 104 7 -16 30 -67 52 -114z"/>
</g>
</svg>
