<svg width="32" height="24" viewBox="0 0 32 24" fill="none" xmlns="http://www.w3.org/2000/svg">
<path d="M19.6517 18.6247H17.1254V10.3641C17.1254 10.2141 17.0027 10.0913 16.8527 10.0913H14.8072C14.6571 10.0913 14.5344 10.2141 14.5344 10.3641V18.6247H12.015C11.7866 18.6247 11.6604 18.8872 11.8002 19.0645L15.6186 23.8954C15.6441 23.928 15.6767 23.9543 15.7139 23.9724C15.7511 23.9906 15.7919 24 15.8333 24C15.8747 24 15.9156 23.9906 15.9528 23.9724C15.99 23.9543 16.0226 23.928 16.0481 23.8954L19.8665 19.0645C20.0062 18.8872 19.8801 18.6247 19.6517 18.6247Z" fill="url(#paint0_linear_280_948)"/>
<path d="M26.0406 7.0469C24.4792 2.92854 20.5006 0 15.8402 0C11.1797 0 7.20114 2.92513 5.63971 7.04349C2.71799 7.81057 0.559944 10.4732 0.559944 13.637C0.559944 17.4042 3.61121 20.4554 7.37501 20.4554H8.74212C8.89212 20.4554 9.01486 20.3327 9.01486 20.1827V18.1371C9.01486 17.9871 8.89212 17.8644 8.74212 17.8644H7.37501C6.2261 17.8644 5.14537 17.4076 4.34079 16.5791C3.53962 15.7541 3.11346 14.6427 3.15097 13.4904C3.18165 12.5903 3.48848 11.7448 4.04419 11.0323C4.61353 10.3061 5.41129 9.7777 6.29769 9.54246L7.5898 9.20494L8.06368 7.95716C8.35687 7.17986 8.76598 6.45369 9.28078 5.79571C9.789 5.14354 10.391 4.57025 11.0672 4.0945C12.4684 3.10923 14.1185 2.58761 15.8402 2.58761C17.5618 2.58761 19.2119 3.10923 20.6131 4.0945C21.2915 4.57179 21.8916 5.14454 22.3995 5.79571C22.9143 6.45369 23.3234 7.18327 23.6166 7.95716L24.0871 9.20153L25.3758 9.54246C27.2236 10.0402 28.5157 11.721 28.5157 13.637C28.5157 14.7654 28.0759 15.8291 27.2782 16.6269C26.8869 17.0204 26.4215 17.3324 25.9089 17.5448C25.3962 17.7572 24.8466 17.8659 24.2917 17.8644H22.9246C22.7745 17.8644 22.6518 17.9871 22.6518 18.1371V20.1827C22.6518 20.3327 22.7745 20.4554 22.9246 20.4554H24.2917C28.0555 20.4554 31.1067 17.4042 31.1067 13.637C31.1067 10.4766 28.9555 7.81738 26.0406 7.0469Z" fill="url(#paint1_linear_280_948)"/>
<defs>
<linearGradient id="paint0_linear_280_948" x1="0.559944" y1="12" x2="31.1067" y2="12" gradientUnits="userSpaceOnUse">
<stop stop-color="#0052D4"/>
<stop offset="0.5" stop-color="#4364F7"/>
<stop offset="1" stop-color="#6FB1FC"/>
</linearGradient>
<linearGradient id="paint1_linear_280_948" x1="0.559944" y1="12" x2="31.1067" y2="12" gradientUnits="userSpaceOnUse">
<stop stop-color="#0052D4"/>
<stop offset="0.5" stop-color="#4364F7"/>
<stop offset="1" stop-color="#6FB1FC"/>
</linearGradient>
</defs>
</svg>
