<svg width="25" height="24" viewBox="0 0 25 24" fill="none" xmlns="http://www.w3.org/2000/svg">
<path d="M18.0387 6.67669C18.5482 6.16988 18.5482 5.34397 18.0387 4.83716L16.1644 2.96278L16.167 2.96546C15.671 2.46938 14.8182 1.61665 13.6115 0.412649C13.0431 -0.142426 12.1233 -0.137063 11.5602 0.426057L1.00033 10.9779C0.865225 11.112 0.758 11.2716 0.68483 11.4474C0.61166 11.6232 0.57399 11.8118 0.57399 12.0022C0.57399 12.1926 0.61166 12.3812 0.68483 12.557C0.758 12.7328 0.865225 12.8924 1.00033 13.0265L11.5575 23.5757C11.8297 23.8474 12.1986 24 12.5832 24C12.9678 24 13.3367 23.8474 13.6089 23.5757L18.0361 19.1511C18.5455 18.6443 18.5455 17.8184 18.0361 17.3116C17.7913 17.0681 17.4602 16.9314 17.115 16.9314C16.7697 16.9314 16.4386 17.0681 16.1939 17.3116L12.8419 20.6689C12.7025 20.8083 12.4853 20.8083 12.3459 20.6689L3.91247 12.2435C3.77303 12.1041 3.77303 11.8869 3.91247 11.7475L12.3432 3.3221C12.3539 3.31138 12.3673 3.30333 12.378 3.29261C12.5175 3.18266 12.7106 3.19339 12.8393 3.3221L16.1965 6.67669C16.706 7.18618 17.5319 7.18618 18.0387 6.67669ZM9.78769 12.0558C9.78769 12.8111 10.088 13.5355 10.6226 14.0695C11.1571 14.6036 11.8822 14.9036 12.6381 14.9036C13.3941 14.9036 14.1192 14.6036 14.6537 14.0695C15.1883 13.5355 15.4886 12.8111 15.4886 12.0558C15.4886 11.3006 15.1883 10.5762 14.6537 10.0421C14.1192 9.50808 13.3941 9.20805 12.6381 9.20805C11.8822 9.20805 11.1571 9.50808 10.6226 10.0421C10.088 10.5762 9.78769 11.3006 9.78769 12.0558ZM24.166 11.0208L20.8704 7.74126C20.3609 7.23445 19.535 7.23445 19.0282 7.74394C18.9071 7.86453 18.811 8.00786 18.7454 8.1657C18.6798 8.32354 18.646 8.49278 18.646 8.6637C18.646 8.83462 18.6798 9.00386 18.7454 9.1617C18.811 9.31954 18.9071 9.46287 19.0282 9.58346L21.2539 11.8064C21.3933 11.9459 21.3933 12.1631 21.2539 12.3025L19.0604 14.4933C18.9393 14.6139 18.8432 14.7573 18.7776 14.9151C18.712 15.0729 18.6782 15.2422 18.6782 15.4131C18.6782 15.584 18.712 15.7533 18.7776 15.9111C18.8432 16.0689 18.9393 16.2123 19.0604 16.3329C19.3051 16.5764 19.6363 16.713 19.9815 16.713C20.3267 16.713 20.6579 16.5764 20.9026 16.3329L24.1687 13.0694C24.3033 12.9349 24.4101 12.7751 24.4829 12.5993C24.5556 12.4234 24.5929 12.2349 24.5927 12.0445C24.5925 11.8542 24.5546 11.6658 24.4814 11.4901C24.4082 11.3144 24.301 11.1549 24.166 11.0208Z" fill="url(#paint0_linear_280_838)"/>
<defs>
<linearGradient id="paint0_linear_280_838" x1="0.57399" y1="12" x2="24.5927" y2="12" gradientUnits="userSpaceOnUse">
<stop stop-color="#0052D4"/>
<stop offset="0.5" stop-color="#4364F7"/>
<stop offset="1" stop-color="#6FB1FC"/>
</linearGradient>
</defs>
</svg>
