<svg width="25" height="24" viewBox="0 0 25 24" fill="none" xmlns="http://www.w3.org/2000/svg">
<path d="M4.62538 0.0891623C4.77811 0.162602 4.907 0.277685 4.99721 0.421161C5.08741 0.564637 5.13526 0.730671 5.13524 0.900147C5.13524 1.89588 5.50954 2.46933 5.97862 3.16754L6.01341 3.21793C6.4117 3.81057 6.93476 4.58677 6.93476 5.69887C6.93476 6.83377 6.36251 7.8343 5.49035 8.42814C5.71949 8.62009 5.92223 8.85643 6.09739 9.13955C6.66843 10.0633 6.93476 11.4753 6.93476 13.5028C6.93476 15.5566 6.65884 18.0232 6.20896 19.9931C5.98582 20.972 5.70869 21.8754 5.37878 22.5532C5.22302 22.8904 5.0167 23.2019 4.76694 23.4769C4.51981 23.7301 4.13951 24 3.63564 24C3.13177 24 2.75148 23.7301 2.50554 23.4769C2.25506 23.2025 2.04866 22.8909 1.8937 22.5532C1.56259 21.8742 1.28547 20.972 1.06233 19.9919C0.594386 17.8597 0.351122 15.6844 0.336518 13.5016C0.336518 11.4741 0.602848 10.0633 1.1739 9.13955C1.33681 8.87142 1.54177 8.63122 1.78093 8.42814C1.33558 8.12578 0.971074 7.71893 0.719279 7.24315C0.467484 6.76738 0.336068 6.23717 0.336518 5.69887C0.336518 5.25739 0.336518 4.49799 0.795996 3.51785C1.24588 2.55811 2.10125 1.4556 3.67283 0.197134C3.80529 0.0911828 3.96499 0.0248293 4.13353 0.00572559C4.30206 -0.0133781 4.47257 0.0155459 4.62538 0.0891623ZM2.13604 5.69767C2.13604 6.09539 2.29403 6.47802 2.57526 6.75925C2.85649 7.04048 3.23792 7.19847 3.63564 7.19847C4.03336 7.19847 4.41479 7.04048 4.69602 6.75925C4.97725 6.47802 5.13524 6.09659 5.13524 5.69887C5.13524 5.17221 4.9133 4.80751 4.48501 4.17048L4.47062 4.14888C4.19589 3.74099 3.87078 3.25752 3.64044 2.63728C2.98901 3.29951 2.62911 3.84896 2.42636 4.28085C2.13604 4.89988 2.13604 5.34137 2.13604 5.69767ZM2.70469 10.0849C2.40717 10.5672 2.13604 11.5557 2.13604 13.5028C2.13604 15.4235 2.39757 17.7557 2.81626 19.5924C3.0274 20.5161 3.26734 21.2659 3.51087 21.765C3.55526 21.8574 3.59725 21.9342 3.63564 21.9989C3.67403 21.9342 3.71602 21.8574 3.76041 21.765C4.00394 21.2659 4.24388 20.5149 4.45502 19.5924C4.87491 17.7569 5.13524 15.4247 5.13524 13.5028C5.13524 11.5557 4.86411 10.5672 4.56659 10.0849C4.47686 9.92254 4.34124 9.79026 4.1767 9.7046C4.00632 9.6304 3.8213 9.59594 3.63564 9.60383C3.3957 9.60383 3.22415 9.64102 3.09458 9.7046C2.93004 9.79026 2.79442 9.92254 2.70469 10.0849ZM9.93396 15.4979C9.29838 15.3913 8.68014 15.1992 8.09605 14.9268C8.13117 14.2464 8.14117 13.5649 8.12605 12.8838C8.6671 13.2473 9.27774 13.5148 9.93396 13.6636V10.1977C9.93396 9.72041 10.1236 9.26269 10.461 8.92522C10.7985 8.58774 11.2562 8.39815 11.7335 8.39815H16.5322C16.5322 7.39125 16.2505 6.40443 15.7191 5.54919C15.1877 4.69395 14.4276 4.00437 13.5249 3.55837C12.6222 3.11237 11.6127 2.92772 10.6105 3.02529C9.60838 3.12285 8.65348 3.49875 7.85372 4.11049C7.61378 3.44707 7.27187 2.9396 7.03434 2.5869L6.98635 2.51492C8.06421 1.75509 9.3301 1.30598 10.6458 1.21661C11.9615 1.12723 13.2765 1.40103 14.4472 2.00811C15.618 2.6152 16.5994 3.53223 17.2844 4.65911C17.9694 5.78598 18.3317 7.0794 18.3317 8.39815H22.5306C23.0079 8.39815 23.4656 8.58774 23.8031 8.92522C24.1405 9.26269 24.3301 9.72041 24.3301 10.1977V20.9948C24.3301 21.4721 24.1405 21.9298 23.8031 22.2673C23.4656 22.6047 23.0079 22.7943 22.5306 22.7943H11.7335C11.2562 22.7943 10.7985 22.6047 10.461 22.2673C10.1236 21.9298 9.93396 21.4721 9.93396 20.9948V15.4967V15.4979ZM11.7335 15.5734V20.996H22.5306V10.1989H18.1038C17.73 11.6445 16.9162 12.9383 15.775 13.9011C14.6337 14.864 13.2214 15.4484 11.7335 15.5734ZM16.2251 10.1989H11.7335V13.7655C12.7415 13.6525 13.6973 13.2581 14.4916 12.6273C15.2859 11.9966 15.8866 11.155 16.2251 10.1989Z" fill="url(#paint0_linear_280_362)"/>
<defs>
<linearGradient id="paint0_linear_280_362" x1="0.336517" y1="12" x2="24.3301" y2="12" gradientUnits="userSpaceOnUse">
<stop stop-color="#0052D4"/>
<stop offset="0.5" stop-color="#4364F7"/>
<stop offset="1" stop-color="#6FB1FC"/>
</linearGradient>
</defs>
</svg>
