<svg width="62" height="60" viewBox="0 0 62 60" fill="none" xmlns="http://www.w3.org/2000/svg">
<path opacity="0.25" d="M39.997 5.59806e-06C35.087 0.00242627 30.3332 1.72572 26.5622 4.87019C22.7913 8.01467 20.2417 12.3814 19.357 17.211C22.7709 15.3442 26.6977 14.6339 30.5492 15.1865C34.4008 15.7391 37.9695 17.5248 40.7208 20.2761C43.4722 23.0274 45.2579 26.5962 45.8105 30.4477C46.3631 34.2992 45.6527 38.2261 43.786 41.64C48.9411 40.6979 53.5574 37.8616 56.7274 33.6886C59.8974 29.5156 61.3918 24.3077 60.9169 19.0888C60.442 13.8699 58.0322 9.01731 54.161 5.48501C50.2899 1.95272 45.2375 -0.0038195 39.997 5.59806e-06Z" fill="url(#paint0_linear_234_1668)"/>
<path d="M15.9966 60C24.2809 60 30.9966 53.2843 30.9966 45C30.9966 36.7157 24.2809 30 15.9966 30C7.71237 30 0.996643 36.7157 0.996643 45C0.996643 53.2843 7.71237 60 15.9966 60Z" fill="url(#paint1_linear_234_1668)"/>
<path opacity="0.5" d="M27.9967 15C23.5315 15.0004 19.226 16.6603 15.9162 19.6574C12.6064 22.6545 10.5287 26.7748 10.0867 31.218C12.8417 30.034 15.8884 29.7035 18.8332 30.2691C21.778 30.8347 24.4855 32.2704 26.6059 34.3908C28.7263 36.5111 30.162 39.2186 30.7276 42.1634C31.2932 45.1082 30.9626 48.155 29.7787 50.91C34.3723 50.4489 38.6132 48.2404 41.6246 44.741C44.636 41.2416 46.1877 36.7189 45.9589 32.1079C45.73 27.4968 43.7382 23.1499 40.3952 19.9659C37.0521 16.7818 32.6134 15.004 27.9967 15Z" fill="url(#paint2_linear_234_1668)"/>
<defs>
<linearGradient id="paint0_linear_234_1668" x1="19.357" y1="20.82" x2="61.0033" y2="20.82" gradientUnits="userSpaceOnUse">
<stop stop-color="#0052D4"/>
<stop offset="0.5" stop-color="#4364F7"/>
<stop offset="1" stop-color="#6FB1FC"/>
</linearGradient>
<linearGradient id="paint1_linear_234_1668" x1="0.996643" y1="45" x2="30.9966" y2="45" gradientUnits="userSpaceOnUse">
<stop stop-color="#0052D4"/>
<stop offset="0.5" stop-color="#4364F7"/>
<stop offset="1" stop-color="#6FB1FC"/>
</linearGradient>
<linearGradient id="paint2_linear_234_1668" x1="10.0867" y1="32.955" x2="45.981" y2="32.955" gradientUnits="userSpaceOnUse">
<stop stop-color="#0052D4"/>
<stop offset="0.5" stop-color="#4364F7"/>
<stop offset="1" stop-color="#6FB1FC"/>
</linearGradient>
</defs>
</svg>
