<svg width="80" height="80" viewBox="0 0 80 80" fill="none" xmlns="http://www.w3.org/2000/svg">
<path opacity="0.7" d="M30.9091 40C33.9216 40 36.3637 37.5579 36.3637 34.5454C36.3637 31.533 33.9216 29.0909 30.9091 29.0909C27.8967 29.0909 25.4546 31.533 25.4546 34.5454C25.4546 37.5579 27.8967 40 30.9091 40Z" fill="url(#paint0_linear_367_1205)"/>
<path d="M29.091 54.5454C31.0993 54.5454 32.7273 52.9174 32.7273 50.9091C32.7273 48.9008 31.0993 47.2727 29.091 47.2727C27.0826 47.2727 25.4546 48.9008 25.4546 50.9091C25.4546 52.9174 27.0826 54.5454 29.091 54.5454Z" fill="url(#paint1_linear_367_1205)"/>
<path opacity="0.7" d="M49.0908 50.9091C52.1032 50.9091 54.5453 48.467 54.5453 45.4545C54.5453 42.4421 52.1032 40 49.0908 40C46.0783 40 43.6362 42.4421 43.6362 45.4545C43.6362 48.467 46.0783 50.9091 49.0908 50.9091Z" fill="url(#paint2_linear_367_1205)"/>
<path d="M50.9093 32.7273C52.9176 32.7273 54.5457 31.0992 54.5457 29.0909C54.5457 27.0826 52.9176 25.4545 50.9093 25.4545C48.901 25.4545 47.2729 27.0826 47.2729 29.0909C47.2729 31.0992 48.901 32.7273 50.9093 32.7273Z" fill="url(#paint3_linear_367_1205)"/>
<path opacity="0.25" d="M40 25.4545C39.0356 25.4545 38.1107 25.0714 37.4287 24.3895C36.7468 23.7075 36.3636 22.7826 36.3636 21.8182V3.63636C36.3636 2.67194 36.7468 1.74702 37.4287 1.06507C38.1107 0.383116 39.0356 0 40 0C40.9644 0 41.8893 0.383116 42.5713 1.06507C43.2533 1.74702 43.6364 2.67194 43.6364 3.63636V21.8182C43.6364 22.7826 43.2533 23.7075 42.5713 24.3895C41.8893 25.0714 40.9644 25.4545 40 25.4545ZM40 80C39.0356 80 38.1107 79.6169 37.4287 78.9349C36.7468 78.253 36.3636 77.3281 36.3636 76.3636V58.1818C36.3636 57.2174 36.7468 56.2925 37.4287 55.6105C38.1107 54.9286 39.0356 54.5455 40 54.5455C40.9644 54.5455 41.8893 54.9286 42.5713 55.6105C43.2533 56.2925 43.6364 57.2174 43.6364 58.1818V76.3636C43.6364 77.3281 43.2533 78.253 42.5713 78.9349C41.8893 79.6169 40.9644 80 40 80ZM76.3636 43.6364H61.8182C60.8538 43.6364 59.9288 43.2533 59.2469 42.5713C58.5649 41.8893 58.1818 40.9644 58.1818 40C58.1818 39.0356 58.5649 38.1107 59.2469 37.4287C59.9288 36.7468 60.8538 36.3636 61.8182 36.3636H76.3636C77.3281 36.3636 78.253 36.7468 78.9349 37.4287C79.6169 38.1107 80 39.0356 80 40C80 40.9644 79.6169 41.8893 78.9349 42.5713C78.253 43.2533 77.3281 43.6364 76.3636 43.6364ZM18.1818 43.6364H3.63636C2.67194 43.6364 1.74702 43.2533 1.06507 42.5713C0.383116 41.8893 0 40.9644 0 40C0 39.0356 0.383116 38.1107 1.06507 37.4287C1.74702 36.7468 2.67194 36.3636 3.63636 36.3636H18.1818C19.1462 36.3636 20.0712 36.7468 20.7531 37.4287C21.4351 38.1107 21.8182 39.0356 21.8182 40C21.8182 40.9644 21.4351 41.8893 20.7531 42.5713C20.0712 43.2533 19.1462 43.6364 18.1818 43.6364Z" fill="url(#paint4_linear_367_1205)"/>
<path opacity="0.5" d="M61.8167 43.6363C60.8523 43.6363 59.9274 43.2532 59.2454 42.5713C58.5635 41.8893 58.1804 40.9644 58.1804 40C58.1804 39.0355 58.5635 38.1106 59.2454 37.4287C59.9274 36.7467 60.8523 36.3636 61.8167 36.3636H72.5113C71.6762 28.9929 68.3654 22.1235 63.1202 16.8783C57.875 11.6331 51.0056 8.32236 43.6349 7.48724V21.8182C43.6349 22.7826 43.2518 23.7075 42.5699 24.3894C41.8879 25.0714 40.963 25.4545 39.9986 25.4545C39.0341 25.4545 38.1092 25.0714 37.4273 24.3894C36.7453 23.7075 36.3622 22.7826 36.3622 21.8182V7.48724C28.9915 8.32236 22.1221 11.6331 16.8769 16.8783C11.6317 22.1235 8.32095 28.9929 7.48584 36.3636H18.1804C19.1448 36.3636 20.0697 36.7467 20.7517 37.4287C21.4336 38.1106 21.8167 39.0355 21.8167 40C21.8167 40.9644 21.4336 41.8893 20.7517 42.5713C20.0697 43.2532 19.1448 43.6363 18.1804 43.6363H7.48584C8.32095 51.007 11.6317 57.8764 16.8769 63.1216C22.1221 68.3668 28.9915 71.6776 36.3622 72.5127V58.1818C36.3622 57.2174 36.7453 56.2924 37.4273 55.6105C38.1092 54.9285 39.0341 54.5454 39.9986 54.5454C40.963 54.5454 41.8879 54.9285 42.5699 55.6105C43.2518 56.2924 43.6349 57.2174 43.6349 58.1818V72.5127C51.0056 71.6776 57.875 68.3668 63.1202 63.1216C68.3654 57.8764 71.6762 51.007 72.5113 43.6363H61.8167ZM29.0895 54.5454C28.3703 54.5454 27.6672 54.3322 27.0692 53.9326C26.4712 53.533 26.0051 52.9651 25.7299 52.3006C25.4547 51.6362 25.3827 50.905 25.523 50.1996C25.6633 49.4943 26.0096 48.8463 26.5182 48.3378C27.0267 47.8292 27.6747 47.4829 28.3801 47.3426C29.0854 47.2023 29.8166 47.2743 30.4811 47.5495C31.1455 47.8247 31.7134 48.2908 32.113 48.8888C32.5126 49.4868 32.7258 50.1899 32.7258 50.9091C32.7258 51.8735 32.3427 52.7984 31.6608 53.4804C30.9788 54.1623 30.0539 54.5454 29.0895 54.5454ZM30.9077 40C29.8288 40 28.7743 39.6801 27.8773 39.0807C26.9803 38.4814 26.2812 37.6295 25.8683 36.6328C25.4555 35.6361 25.3475 34.5394 25.5579 33.4813C25.7684 32.4232 26.2879 31.4513 27.0507 30.6885C27.8135 29.9256 28.7854 29.4062 29.8435 29.1957C30.9016 28.9852 31.9983 29.0932 32.995 29.5061C33.9917 29.9189 34.8436 30.618 35.4429 31.515C36.0423 32.412 36.3622 33.4666 36.3622 34.5454C36.3622 35.9921 35.7875 37.3794 34.7646 38.4024C33.7417 39.4253 32.3543 40 30.9077 40ZM49.0895 50.9091C48.0107 50.9091 46.9561 50.5892 46.0591 49.9898C45.1621 49.3905 44.463 48.5386 44.0501 47.5419C43.6373 46.5452 43.5293 45.4485 43.7397 44.3904C43.9502 43.3323 44.4697 42.3604 45.2325 41.5976C45.9954 40.8347 46.9673 40.3152 48.0253 40.1048C49.0834 39.8943 50.1801 40.0023 51.1768 40.4152C52.1735 40.828 53.0254 41.5271 53.6248 42.4241C54.2241 43.3211 54.544 44.3757 54.544 45.4545C54.544 46.9011 53.9693 48.2885 52.9464 49.3115C51.9235 50.3344 50.5361 50.9091 49.0895 50.9091ZM50.9077 32.7272C50.1884 32.7272 49.4854 32.514 48.8874 32.1144C48.2894 31.7148 47.8233 31.1469 47.5481 30.4825C47.2729 29.818 47.2009 29.0868 47.3412 28.3815C47.4815 27.6761 47.8278 27.0281 48.3364 26.5196C48.8449 26.011 49.4929 25.6647 50.1982 25.5244C50.9036 25.3841 51.6348 25.4561 52.2992 25.7313C52.9637 26.0065 53.5316 26.4726 53.9312 27.0706C54.3307 27.6686 54.544 28.3717 54.544 29.0909C54.544 30.0553 54.1609 30.9802 53.479 31.6622C52.797 32.3441 51.8721 32.7272 50.9077 32.7272Z" fill="url(#paint5_linear_367_1205)"/>
<path d="M14.4664 19.6109C15.9854 17.7125 17.7098 15.9881 19.6082 14.4691L16.8555 11.7163C16.1696 11.0539 15.2511 10.6874 14.2976 10.6957C13.3442 10.704 12.4322 11.0864 11.758 11.7606C11.0837 12.4348 10.7013 13.3469 10.693 14.3003C10.6847 15.2538 11.0513 16.1723 11.7137 16.8581L14.4664 19.6109ZM14.4664 60.3891L11.7137 63.1418C11.3663 63.4772 11.0893 63.8785 10.8987 64.3221C10.7082 64.7658 10.6078 65.2429 10.6037 65.7258C10.5995 66.2086 10.6915 66.6874 10.8743 67.1343C11.0571 67.5812 11.3272 67.9872 11.6686 68.3287C12.01 68.6701 12.416 68.9401 12.8629 69.1229C13.3098 69.3058 13.7886 69.3978 14.2715 69.3936C14.7543 69.3894 15.2315 69.2891 15.6751 69.0985C16.1188 68.9079 16.52 68.6309 16.8555 68.2836L19.6082 65.5309C17.7098 64.0118 15.9854 62.2874 14.4664 60.3891ZM65.5282 60.3891C64.0092 62.2874 62.2847 64.0118 60.3864 65.5309L63.1391 68.2836C63.8249 68.946 64.7435 69.3125 65.6969 69.3042C66.6504 69.2959 67.5624 68.9135 68.2366 68.2393C68.9108 67.5651 69.2933 66.653 69.3016 65.6996C69.3098 64.7462 68.9433 63.8276 68.2809 63.1418L65.5282 60.3891ZM65.5282 19.6109L68.2809 16.8581C68.9433 16.1723 69.3098 15.2538 69.3016 14.3003C69.2933 13.3469 68.9108 12.4348 68.2366 11.7606C67.5624 11.0864 66.6504 10.704 65.6969 10.6957C64.7435 10.6874 63.8249 11.0539 63.1391 11.7163L60.3864 14.4691C62.2847 15.9881 64.0092 17.7125 65.5282 19.6109Z" fill="url(#paint6_linear_367_1205)"/>
<defs>
<linearGradient id="paint0_linear_367_1205" x1="25.4546" y1="34.5454" x2="36.3637" y2="34.5454" gradientUnits="userSpaceOnUse">
<stop stop-color="#0052D4"/>
<stop offset="0.5" stop-color="#4364F7"/>
<stop offset="1" stop-color="#6FB1FC"/>
</linearGradient>
<linearGradient id="paint1_linear_367_1205" x1="25.4546" y1="50.9091" x2="32.7273" y2="50.9091" gradientUnits="userSpaceOnUse">
<stop stop-color="#0052D4"/>
<stop offset="0.5" stop-color="#4364F7"/>
<stop offset="1" stop-color="#6FB1FC"/>
</linearGradient>
<linearGradient id="paint2_linear_367_1205" x1="43.6362" y1="45.4545" x2="54.5453" y2="45.4545" gradientUnits="userSpaceOnUse">
<stop stop-color="#0052D4"/>
<stop offset="0.5" stop-color="#4364F7"/>
<stop offset="1" stop-color="#6FB1FC"/>
</linearGradient>
<linearGradient id="paint3_linear_367_1205" x1="47.2729" y1="29.0909" x2="54.5457" y2="29.0909" gradientUnits="userSpaceOnUse">
<stop stop-color="#0052D4"/>
<stop offset="0.5" stop-color="#4364F7"/>
<stop offset="1" stop-color="#6FB1FC"/>
</linearGradient>
<linearGradient id="paint4_linear_367_1205" x1="0" y1="40" x2="80" y2="40" gradientUnits="userSpaceOnUse">
<stop stop-color="#0052D4"/>
<stop offset="0.5" stop-color="#4364F7"/>
<stop offset="1" stop-color="#6FB1FC"/>
</linearGradient>
<linearGradient id="paint5_linear_367_1205" x1="7.48584" y1="40" x2="72.5113" y2="40" gradientUnits="userSpaceOnUse">
<stop stop-color="#0052D4"/>
<stop offset="0.5" stop-color="#4364F7"/>
<stop offset="1" stop-color="#6FB1FC"/>
</linearGradient>
<linearGradient id="paint6_linear_367_1205" x1="10.6035" y1="40.0446" x2="69.3017" y2="40.0446" gradientUnits="userSpaceOnUse">
<stop stop-color="#0052D4"/>
<stop offset="0.5" stop-color="#4364F7"/>
<stop offset="1" stop-color="#6FB1FC"/>
</linearGradient>
</defs>
</svg>
