<svg width="60" height="60" viewBox="0 0 60 60" fill="none" xmlns="http://www.w3.org/2000/svg">
<path opacity="0.25" d="M56.9993 0H20.9993C20.2042 -3.97564e-07 19.4416 0.315658 18.879 0.877618C18.3165 1.43958 18.0001 2.20187 17.9993 2.997V15H41.9993C42.7944 15 43.557 15.3156 44.1195 15.8776C44.6821 16.4396 44.9985 17.2019 44.9993 17.997V42H56.9993C57.7944 42 58.557 41.6843 59.1195 41.1224C59.6821 40.5604 59.9985 39.7981 59.9993 39.003V3C59.9993 2.20487 59.6836 1.44226 59.1217 0.879739C58.5597 0.317216 57.7974 0.00079513 57.0023 0H56.9993Z" fill="url(#paint0_linear_234_307)"/>
<path d="M3.00082 30H27.0008C27.7965 30 28.5595 30.3161 29.1221 30.8787C29.6848 31.4413 30.0008 32.2044 30.0008 33V57C30.0008 57.7956 29.6848 58.5587 29.1221 59.1213C28.5595 59.6839 27.7965 60 27.0008 60H3.00082C2.20517 60 1.44211 59.6839 0.879503 59.1213C0.316894 58.5587 0.000823975 57.7956 0.000823975 57V33C0.000823975 32.2044 0.316894 31.4413 0.879503 30.8787C1.44211 30.3161 2.20517 30 3.00082 30Z" fill="url(#paint1_linear_234_307)"/>
<path opacity="0.5" d="M42.0022 15H12.0022C11.207 15 10.4444 15.3157 9.88191 15.8776C9.31938 16.4396 9.00296 17.2019 9.00217 17.997V30H27.0022C27.7973 30 28.5599 30.3157 29.1224 30.8776C29.685 31.4396 30.0014 32.2019 30.0022 32.997V51H42.0022C42.7973 51 43.5599 50.6844 44.1225 50.1224C44.685 49.5604 45.0014 48.7982 45.0022 48.003V18C45.0022 17.2049 44.6865 16.4423 44.1246 15.8797C43.5626 15.3172 42.8003 15.0008 42.0052 15H42.0022Z" fill="url(#paint2_linear_234_307)"/>
<defs>
<linearGradient id="paint0_linear_234_307" x1="17.9993" y1="21" x2="59.9993" y2="21" gradientUnits="userSpaceOnUse">
<stop stop-color="#0052D4"/>
<stop offset="0.5" stop-color="#4364F7"/>
<stop offset="1" stop-color="#6FB1FC"/>
</linearGradient>
<linearGradient id="paint1_linear_234_307" x1="0.000823975" y1="45" x2="30.0008" y2="45" gradientUnits="userSpaceOnUse">
<stop stop-color="#0052D4"/>
<stop offset="0.5" stop-color="#4364F7"/>
<stop offset="1" stop-color="#6FB1FC"/>
</linearGradient>
<linearGradient id="paint2_linear_234_307" x1="9.00217" y1="33" x2="45.0022" y2="33" gradientUnits="userSpaceOnUse">
<stop stop-color="#0052D4"/>
<stop offset="0.5" stop-color="#4364F7"/>
<stop offset="1" stop-color="#6FB1FC"/>
</linearGradient>
</defs>
</svg>
