<svg width="80" height="80" viewBox="0 0 80 80" fill="none" xmlns="http://www.w3.org/2000/svg">
<path opacity="0.5" d="M8 56C5.87827 56 3.84344 55.1571 2.34315 53.6569C0.842854 52.1566 0 50.1217 0 48C0 45.8783 0.842854 43.8434 2.34315 42.3431C3.84344 40.8429 5.87827 40 8 40C10.1217 40 12.1566 40.8429 13.6569 42.3431C15.1571 43.8434 16 45.8783 16 48C16 50.1217 15.1571 52.1566 13.6569 53.6569C12.1566 55.1571 10.1217 56 8 56ZM8 16C5.87827 16 3.84344 15.1571 2.34315 13.6569C0.842854 12.1566 0 10.1217 0 8C0 5.87827 0.842854 3.84344 2.34315 2.34315C3.84344 0.842854 5.87827 0 8 0C10.1217 0 12.1566 0.842854 13.6569 2.34315C15.1571 3.84344 16 5.87827 16 8C16 10.1217 15.1571 12.1566 13.6569 13.6569C12.1566 15.1571 10.1217 16 8 16ZM48 16C45.8783 16 43.8434 15.1571 42.3431 13.6569C40.8429 12.1566 40 10.1217 40 8C40 5.87827 40.8429 3.84344 42.3431 2.34315C43.8434 0.842854 45.8783 0 48 0C50.1217 0 52.1566 0.842854 53.6569 2.34315C55.1571 3.84344 56 5.87827 56 8C56 10.1217 55.1571 12.1566 53.6569 13.6569C52.1566 15.1571 50.1217 16 48 16ZM48 56C45.8783 56 43.8434 55.1571 42.3431 53.6569C40.8429 52.1566 40 50.1217 40 48C40 45.8783 40.8429 43.8434 42.3431 42.3431C43.8434 40.8429 45.8783 40 48 40C50.1217 40 52.1566 40.8429 53.6569 42.3431C55.1571 43.8434 56 45.8783 56 48C56 50.1217 55.1571 52.1566 53.6569 53.6569C52.1566 55.1571 50.1217 56 48 56Z" fill="url(#paint0_linear_367_1589)"/>
<path d="M32 80C29.8783 80 27.8434 79.1571 26.3431 77.6569C24.8429 76.1566 24 74.1217 24 72C24 69.8783 24.8429 67.8434 26.3431 66.3431C27.8434 64.8429 29.8783 64 32 64C34.1217 64 36.1566 64.8429 37.6569 66.3431C39.1571 67.8434 40 69.8783 40 72C40 74.1217 39.1571 76.1566 37.6569 77.6569C36.1566 79.1571 34.1217 80 32 80ZM32 40C29.8783 40 27.8434 39.1571 26.3431 37.6569C24.8429 36.1566 24 34.1217 24 32C24 29.8783 24.8429 27.8434 26.3431 26.3431C27.8434 24.8429 29.8783 24 32 24C34.1217 24 36.1566 24.8429 37.6569 26.3431C39.1571 27.8434 40 29.8783 40 32C40 34.1217 39.1571 36.1566 37.6569 37.6569C36.1566 39.1571 34.1217 40 32 40ZM72 40C69.8783 40 67.8434 39.1571 66.3431 37.6569C64.8429 36.1566 64 34.1217 64 32C64 29.8783 64.8429 27.8434 66.3431 26.3431C67.8434 24.8429 69.8783 24 72 24C74.1217 24 76.1566 24.8429 77.6569 26.3431C79.1571 27.8434 80 29.8783 80 32C80 34.1217 79.1571 36.1566 77.6569 37.6569C76.1566 39.1571 74.1217 40 72 40ZM72 80C69.8783 80 67.8434 79.1571 66.3431 77.6569C64.8429 76.1566 64 74.1217 64 72C64 69.8783 64.8429 67.8434 66.3431 66.3431C67.8434 64.8429 69.8783 64 72 64C74.1217 64 76.1566 64.8429 77.6569 66.3431C79.1571 67.8434 80 69.8783 80 72C80 74.1217 79.1571 76.1566 77.6569 77.6569C76.1566 79.1571 74.1217 80 72 80Z" fill="url(#paint1_linear_367_1589)"/>
<path opacity="0.25" d="M41.112 12C40.3838 10.7928 39.999 9.40979 39.999 8C39.999 6.59021 40.3838 5.20716 41.112 4H14.888C15.6162 5.20716 16.001 6.59021 16.001 8C16.001 9.40979 15.6162 10.7928 14.888 12H41.112ZM8 40C9.40849 40.0084 10.7893 40.3922 12 41.112V14.888C10.7928 15.6162 9.40979 16.001 8 16.001C6.59021 16.001 5.20716 15.6162 4 14.888V41.112C5.21073 40.3922 6.59151 40.0084 8 40Z" fill="url(#paint2_linear_367_1589)"/>
<path opacity="0.5" d="M72 63.9997C73.4085 64.0081 74.7893 64.3919 76 65.1117V38.8877C74.7928 39.6159 73.4098 40.0007 72 40.0007C70.5902 40.0007 69.2072 39.6159 68 38.8877V65.1117C69.2107 64.3919 70.5915 64.0081 72 63.9997ZM32 63.9997C33.4085 64.0081 34.7893 64.3919 36 65.1117V38.8877C34.7928 39.6159 33.4098 40.0007 32 40.0007C30.5902 40.0007 29.2072 39.6159 28 38.8877V65.1117C29.2107 64.3919 30.5915 64.0081 32 63.9997Z" fill="url(#paint3_linear_367_1589)"/>
<path opacity="0.25" d="M41.1146 44H36.0026V52H41.1146C40.3864 50.7928 40.0016 49.4098 40.0016 48C40.0016 46.5902 40.3864 45.2072 41.1146 44ZM28.0026 52V44H14.8906C15.6188 45.2072 16.0037 46.5902 16.0037 48C16.0037 49.4098 15.6188 50.7928 14.8906 52H28.0026Z" fill="url(#paint4_linear_367_1589)"/>
<path opacity="0.5" d="M65.1146 68H38.8906C39.6188 69.2072 40.0037 70.5902 40.0037 72C40.0037 73.4098 39.6188 74.7928 38.8906 76H65.1146C64.3864 74.7928 64.0016 73.4098 64.0016 72C64.0016 70.5902 64.3864 69.2072 65.1146 68ZM65.1146 36C64.3864 34.7928 64.0016 33.4098 64.0016 32C64.0016 30.5902 64.3864 29.2072 65.1146 28H38.8906C39.6188 29.2072 40.0037 30.5902 40.0037 32C40.0037 33.4098 39.6188 34.7928 38.8906 36H65.1146Z" fill="url(#paint5_linear_367_1589)"/>
<path opacity="0.25" d="M52 27.9997V14.8877C50.7928 15.6159 49.4098 16.0007 48 16.0007C46.5902 16.0007 45.2072 15.6159 44 14.8877V27.9997H52ZM44 35.9997V41.1117C45.2072 40.3835 46.5902 39.9986 48 39.9986C49.4098 39.9986 50.7928 40.3835 52 41.1117V35.9997H44Z" fill="url(#paint6_linear_367_1589)"/>
<defs>
<linearGradient id="paint0_linear_367_1589" x1="0" y1="28" x2="56" y2="28" gradientUnits="userSpaceOnUse">
<stop stop-color="#0052D4"/>
<stop offset="0.5" stop-color="#4364F7"/>
<stop offset="1" stop-color="#6FB1FC"/>
</linearGradient>
<linearGradient id="paint1_linear_367_1589" x1="24" y1="52" x2="80" y2="52" gradientUnits="userSpaceOnUse">
<stop stop-color="#0052D4"/>
<stop offset="0.5" stop-color="#4364F7"/>
<stop offset="1" stop-color="#6FB1FC"/>
</linearGradient>
<linearGradient id="paint2_linear_367_1589" x1="4" y1="22.556" x2="41.112" y2="22.556" gradientUnits="userSpaceOnUse">
<stop stop-color="#0052D4"/>
<stop offset="0.5" stop-color="#4364F7"/>
<stop offset="1" stop-color="#6FB1FC"/>
</linearGradient>
<linearGradient id="paint3_linear_367_1589" x1="28" y1="51.9997" x2="76" y2="51.9997" gradientUnits="userSpaceOnUse">
<stop stop-color="#0052D4"/>
<stop offset="0.5" stop-color="#4364F7"/>
<stop offset="1" stop-color="#6FB1FC"/>
</linearGradient>
<linearGradient id="paint4_linear_367_1589" x1="14.8906" y1="48" x2="41.1146" y2="48" gradientUnits="userSpaceOnUse">
<stop stop-color="#0052D4"/>
<stop offset="0.5" stop-color="#4364F7"/>
<stop offset="1" stop-color="#6FB1FC"/>
</linearGradient>
<linearGradient id="paint5_linear_367_1589" x1="38.8906" y1="52" x2="65.1146" y2="52" gradientUnits="userSpaceOnUse">
<stop stop-color="#0052D4"/>
<stop offset="0.5" stop-color="#4364F7"/>
<stop offset="1" stop-color="#6FB1FC"/>
</linearGradient>
<linearGradient id="paint6_linear_367_1589" x1="44" y1="27.9997" x2="52" y2="27.9997" gradientUnits="userSpaceOnUse">
<stop stop-color="#0052D4"/>
<stop offset="0.5" stop-color="#4364F7"/>
<stop offset="1" stop-color="#6FB1FC"/>
</linearGradient>
</defs>
</svg>
