<svg width="54" height="60" viewBox="0 0 54 60" fill="none" xmlns="http://www.w3.org/2000/svg">
<path d="M0.546021 0L5.36102 54L26.967 60L48.633 53.994L53.454 0H0.546021ZM42.975 17.661H17.631L18.237 24.444H42.372L40.554 44.778L27 48.534L26.97 48.543L13.401 44.778L12.474 34.38H19.122L19.596 39.66L26.97 41.652H26.976L34.365 39.657L35.133 31.068H12.18L10.392 11.04H43.569L42.975 17.661Z" fill="url(#paint0_linear_234_1122)"/>
<path opacity="0.25" d="M42.9758 17.6612H17.6318L18.2378 24.4442H42.3728L40.5548 44.7782L27.0008 48.5342L26.9708 48.5432L13.4018 44.7782L12.4748 34.3802H19.1228L19.5968 39.6602L26.9708 41.6522H26.9768L34.3658 39.6572L35.1338 31.0682H12.1808L10.3928 11.0402H43.5698L42.9758 17.6612Z" fill="url(#paint1_linear_234_1122)"/>
<defs>
<linearGradient id="paint0_linear_234_1122" x1="0.546021" y1="30" x2="53.454" y2="30" gradientUnits="userSpaceOnUse">
<stop stop-color="#0052D4"/>
<stop offset="0.5" stop-color="#4364F7"/>
<stop offset="1" stop-color="#6FB1FC"/>
</linearGradient>
<linearGradient id="paint1_linear_234_1122" x1="10.3928" y1="29.7917" x2="43.5698" y2="29.7917" gradientUnits="userSpaceOnUse">
<stop stop-color="#0052D4"/>
<stop offset="0.5" stop-color="#4364F7"/>
<stop offset="1" stop-color="#6FB1FC"/>
</linearGradient>
</defs>
</svg>
