<svg width="60" height="60" viewBox="0 0 60 60" fill="none" xmlns="http://www.w3.org/2000/svg">
<path opacity="0.25" d="M22.0201 0C20.4288 0 18.9027 0.632139 17.7775 1.75736C16.6523 2.88257 16.0201 4.40869 16.0201 5.99999C16.0201 7.59128 16.6523 9.1174 17.7775 10.2426C18.9027 11.3678 20.4288 12 22.0201 12H28.0201V5.99999C28.0201 4.40869 27.388 2.88257 26.2628 1.75736C25.1375 0.632139 23.6114 0 22.0201 0ZM22.0201 15.99H6.00015C4.40886 15.99 2.88274 16.6221 1.75752 17.7473C0.632307 18.8725 0.000167847 20.3987 0.000167847 21.99C0.000167847 23.5812 0.632307 25.1074 1.75752 26.2326C2.88274 27.3578 4.40886 27.9899 6.00015 27.9899H22.0201C23.6114 27.9899 25.1375 27.3578 26.2628 26.2326C27.388 25.1074 28.0201 23.5812 28.0201 21.99C28.0201 20.3987 27.388 18.8725 26.2628 17.7473C25.1375 16.6221 23.6114 15.99 22.0201 15.99Z" fill="url(#paint0_linear_234_672)"/>
<path opacity="0.5" d="M59.9999 21.99C59.9999 20.3987 59.3678 18.8725 58.2425 17.7473C57.1173 16.6221 55.5912 15.99 53.9999 15.99C52.4086 15.99 50.8825 16.6221 49.7573 17.7473C48.6321 18.8725 47.9999 20.3987 47.9999 21.99V27.9899H53.9999C55.5912 27.9899 57.1173 27.3578 58.2425 26.2326C59.3678 25.1074 59.9999 23.5812 59.9999 21.99ZM44.0399 21.99V5.99999C44.0399 4.40869 43.4078 2.88257 42.2826 1.75736C41.1574 0.632139 39.6312 0 38.0399 0C36.4487 0 34.9225 0.632139 33.7973 1.75736C32.6721 2.88257 32.04 4.40869 32.04 5.99999V21.99C32.04 23.5812 32.6721 25.1074 33.7973 26.2326C34.9225 27.3578 36.4487 27.9899 38.0399 27.9899C39.6312 27.9899 41.1574 27.3578 42.2826 26.2326C43.4078 25.1074 44.0399 23.5812 44.0399 21.99Z" fill="url(#paint1_linear_234_672)"/>
<path opacity="0.7" d="M37.9799 60.0001C39.5712 60.0001 41.0973 59.3679 42.2225 58.2427C43.3477 57.1175 43.9798 55.5914 43.9798 54.0001C43.9798 52.4088 43.3477 50.8827 42.2225 49.7575C41.0973 48.6322 39.5712 48.0001 37.9799 48.0001H31.9799V54.0001C31.9799 55.5914 32.612 57.1175 33.7372 58.2427C34.8624 59.3679 36.3886 60.0001 37.9799 60.0001ZM37.9799 44.0101H53.9998C55.5911 44.0101 57.1172 43.378 58.2425 42.2527C59.3677 41.1275 59.9998 39.6014 59.9998 38.0101C59.9998 36.4188 59.3677 34.8927 58.2425 33.7675C57.1172 32.6423 55.5911 32.0101 53.9998 32.0101H37.9799C36.3886 32.0101 34.8624 32.6423 33.7372 33.7675C32.612 34.8927 31.9799 36.4188 31.9799 38.0101C31.9799 39.6014 32.612 41.1275 33.7372 42.2527C34.8624 43.378 36.3886 44.0101 37.9799 44.0101Z" fill="url(#paint2_linear_234_672)"/>
<path d="M0.000167847 38.0101C0.000167847 39.6014 0.632307 41.1275 1.75752 42.2527C2.88274 43.378 4.40886 44.0101 6.00015 44.0101C7.59145 44.0101 9.11757 43.378 10.2428 42.2527C11.368 41.1275 12.0001 39.6014 12.0001 38.0101V32.0101H6.00015C4.40886 32.0101 2.88274 32.6423 1.75752 33.7675C0.632307 34.8927 0.000167847 36.4188 0.000167847 38.0101ZM15.9601 38.0101V54.0001C15.9601 55.5914 16.5923 57.1175 17.7175 58.2427C18.8427 59.3679 20.3688 60.0001 21.9601 60.0001C23.5514 60.0001 25.0775 59.3679 26.2028 58.2427C27.328 57.1175 27.9601 55.5914 27.9601 54.0001V38.0101C27.9601 36.4188 27.328 34.8927 26.2028 33.7675C25.0775 32.6423 23.5514 32.0101 21.9601 32.0101C20.3688 32.0101 18.8427 32.6423 17.7175 33.7675C16.5923 34.8927 15.9601 36.4188 15.9601 38.0101Z" fill="url(#paint3_linear_234_672)"/>
<defs>
<linearGradient id="paint0_linear_234_672" x1="0.000167847" y1="13.995" x2="28.0201" y2="13.995" gradientUnits="userSpaceOnUse">
<stop stop-color="#0052D4"/>
<stop offset="0.5" stop-color="#4364F7"/>
<stop offset="1" stop-color="#6FB1FC"/>
</linearGradient>
<linearGradient id="paint1_linear_234_672" x1="32.04" y1="13.995" x2="59.9999" y2="13.995" gradientUnits="userSpaceOnUse">
<stop stop-color="#0052D4"/>
<stop offset="0.5" stop-color="#4364F7"/>
<stop offset="1" stop-color="#6FB1FC"/>
</linearGradient>
<linearGradient id="paint2_linear_234_672" x1="31.9799" y1="46.0051" x2="59.9998" y2="46.0051" gradientUnits="userSpaceOnUse">
<stop stop-color="#0052D4"/>
<stop offset="0.5" stop-color="#4364F7"/>
<stop offset="1" stop-color="#6FB1FC"/>
</linearGradient>
<linearGradient id="paint3_linear_234_672" x1="0.000167847" y1="46.0051" x2="27.9601" y2="46.0051" gradientUnits="userSpaceOnUse">
<stop stop-color="#0052D4"/>
<stop offset="0.5" stop-color="#4364F7"/>
<stop offset="1" stop-color="#6FB1FC"/>
</linearGradient>
</defs>
</svg>
