<svg width="60" height="60" viewBox="0 0 60 60" fill="none" xmlns="http://www.w3.org/2000/svg">
<path opacity="0.5" d="M27 24H42C42.7956 24 43.5587 24.3161 44.1213 24.8787C44.6839 25.4413 45 26.2044 45 27V42C45 42.7956 44.6839 43.5587 44.1213 44.1213C43.5587 44.6839 42.7956 45 42 45H27C26.2043 45 25.4413 44.6839 24.8786 44.1213C24.316 43.5587 24 42.7956 24 42V27C24 26.2044 24.316 25.4413 24.8786 24.8787C25.4413 24.3161 26.2043 24 27 24Z" fill="url(#paint0_linear_234_1141)"/>
<path d="M24 27C24 26.2044 24.3161 25.4413 24.8787 24.8787C25.4413 24.3161 26.2044 24 27 24H36V18C36 17.2044 35.6839 16.4413 35.1213 15.8787C34.5587 15.3161 33.7957 15 33 15H18C17.2044 15 16.4413 15.3161 15.8787 15.8787C15.3161 16.4413 15 17.2044 15 18V33C15 33.7957 15.3161 34.5587 15.8787 35.1213C16.4413 35.6839 17.2044 36 18 36H24V27ZM6 60C4.4087 60 2.88258 59.3679 1.75736 58.2426C0.632141 57.1174 0 55.5913 0 54C0 52.4087 0.632141 50.8826 1.75736 49.7574C2.88258 48.6321 4.4087 48 6 48C7.5913 48 9.11742 48.6321 10.2426 49.7574C11.3679 50.8826 12 52.4087 12 54C12 55.5913 11.3679 57.1174 10.2426 58.2426C9.11742 59.3679 7.5913 60 6 60ZM6 12C4.4087 12 2.88258 11.3679 1.75736 10.2426C0.632141 9.11742 0 7.5913 0 6C0 4.4087 0.632141 2.88258 1.75736 1.75736C2.88258 0.632141 4.4087 0 6 0C7.5913 0 9.11742 0.632141 10.2426 1.75736C11.3679 2.88258 12 4.4087 12 6C12 7.5913 11.3679 9.11742 10.2426 10.2426C9.11742 11.3679 7.5913 12 6 12ZM54 12C52.4087 12 50.8826 11.3679 49.7574 10.2426C48.6321 9.11742 48 7.5913 48 6C48 4.4087 48.6321 2.88258 49.7574 1.75736C50.8826 0.632141 52.4087 0 54 0C55.5913 0 57.1174 0.632141 58.2426 1.75736C59.3679 2.88258 60 4.4087 60 6C60 7.5913 59.3679 9.11742 58.2426 10.2426C57.1174 11.3679 55.5913 12 54 12ZM54 60C52.4087 60 50.8826 59.3679 49.7574 58.2426C48.6321 57.1174 48 55.5913 48 54C48 52.4087 48.6321 50.8826 49.7574 49.7574C50.8826 48.6321 52.4087 48 54 48C55.5913 48 57.1174 48.6321 58.2426 49.7574C59.3679 50.8826 60 52.4087 60 54C60 55.5913 59.3679 57.1174 58.2426 58.2426C57.1174 59.3679 55.5913 60 54 60Z" fill="url(#paint1_linear_234_1141)"/>
<path opacity="0.25" d="M48.8339 9C48.2878 8.09463 47.9992 7.05734 47.9992 6C47.9992 4.94266 48.2878 3.90537 48.8339 3H11.1659C11.7121 3.90537 12.0007 4.94266 12.0007 6C12.0007 7.05734 11.7121 8.09463 11.1659 9H48.8339ZM53.9999 48C55.0563 48.0063 56.0919 48.2942 56.9999 48.834V11.166C56.0946 11.7121 55.0573 12.0008 53.9999 12.0008C52.9426 12.0008 51.9053 11.7121 50.9999 11.166V48.834C51.908 48.2942 52.9436 48.0063 53.9999 48ZM5.99994 48C7.05631 48.0063 8.09189 48.2942 8.99994 48.834V11.166C8.09457 11.7121 7.05728 12.0008 5.99994 12.0008C4.9426 12.0008 3.90531 11.7121 2.99994 11.166V48.834C3.90799 48.2942 4.94357 48.0063 5.99994 48ZM48.8339 51H11.1659C11.7121 51.9054 12.0007 52.9427 12.0007 54C12.0007 55.0573 11.7121 56.0946 11.1659 57H48.8339C48.2878 56.0946 47.9992 55.0573 47.9992 54C47.9992 52.9427 48.2878 51.9054 48.8339 51Z" fill="url(#paint2_linear_234_1141)"/>
<defs>
<linearGradient id="paint0_linear_234_1141" x1="24" y1="34.5" x2="45" y2="34.5" gradientUnits="userSpaceOnUse">
<stop stop-color="#0052D4"/>
<stop offset="0.5" stop-color="#4364F7"/>
<stop offset="1" stop-color="#6FB1FC"/>
</linearGradient>
<linearGradient id="paint1_linear_234_1141" x1="0" y1="30" x2="60" y2="30" gradientUnits="userSpaceOnUse">
<stop stop-color="#0052D4"/>
<stop offset="0.5" stop-color="#4364F7"/>
<stop offset="1" stop-color="#6FB1FC"/>
</linearGradient>
<linearGradient id="paint2_linear_234_1141" x1="2.99994" y1="30" x2="56.9999" y2="30" gradientUnits="userSpaceOnUse">
<stop stop-color="#0052D4"/>
<stop offset="0.5" stop-color="#4364F7"/>
<stop offset="1" stop-color="#6FB1FC"/>
</linearGradient>
</defs>
</svg>
