<svg width="90" height="80" viewBox="0 0 90 80" fill="none" xmlns="http://www.w3.org/2000/svg">
<path d="M36.1115 13.3333V8.88889H53.8893V13.3333H62.7782V8.88889C62.7759 6.53213 61.8386 4.27257 60.1721 2.60609C58.5056 0.939614 56.2461 0.00235323 53.8893 0H36.1115C33.7548 0.00235323 31.4952 0.939614 29.8288 2.60609C28.1623 4.27257 27.225 6.53213 27.2227 8.88889V13.3333H36.1115Z" fill="url(#paint0_linear_367_1850)"/>
<path opacity="0.25" d="M31.6671 53.3333C30.4884 53.3333 29.3579 52.8651 28.5244 52.0316C27.6909 51.1981 27.2227 50.0676 27.2227 48.8889V40C27.2227 38.8212 27.6909 37.6908 28.5244 36.8573C29.3579 36.0238 30.4884 35.5555 31.6671 35.5555C32.8458 35.5555 33.9763 36.0238 34.8098 36.8573C35.6433 37.6908 36.1115 38.8212 36.1115 40V48.8889C36.1115 50.0676 35.6433 51.1981 34.8098 52.0316C33.9763 52.8651 32.8458 53.3333 31.6671 53.3333ZM58.3338 53.3333C57.155 53.3333 56.0246 52.8651 55.1911 52.0316C54.3576 51.1981 53.8893 50.0676 53.8893 48.8889V40C53.8893 38.8212 54.3576 37.6908 55.1911 36.8573C56.0246 36.0238 57.155 35.5555 58.3338 35.5555C59.5125 35.5555 60.643 36.0238 61.4765 36.8573C62.31 37.6908 62.7782 38.8212 62.7782 40V48.8889C62.7782 50.0676 62.31 51.1981 61.4765 52.0316C60.643 52.8651 59.5125 53.3333 58.3338 53.3333Z" fill="url(#paint1_linear_367_1850)"/>
<path opacity="0.5" d="M80.5557 13.3334H9.44455C7.08707 13.3334 4.82615 14.2699 3.15916 15.9369C1.49217 17.6039 0.555664 19.8648 0.555664 22.2223V35.5556C0.555664 37.9131 1.49217 40.174 3.15916 41.841C4.82615 43.508 7.08707 44.4445 9.44455 44.4445H27.2223V40C27.2223 38.8213 27.6906 37.6908 28.5241 36.8573C29.3576 36.0238 30.488 35.5556 31.6668 35.5556C32.8455 35.5556 33.976 36.0238 34.8095 36.8573C35.643 37.6908 36.1112 38.8213 36.1112 40V44.4445H53.889V40C53.889 38.8213 54.3572 37.6908 55.1907 36.8573C56.0242 36.0238 57.1547 35.5556 58.3334 35.5556C59.5122 35.5556 60.6426 36.0238 61.4761 36.8573C62.3096 37.6908 62.7779 38.8213 62.7779 40V44.4445H80.5557C82.9131 44.4445 85.1741 43.508 86.841 41.841C88.508 40.174 89.4445 37.9131 89.4445 35.5556V22.2223C89.4445 19.8648 88.508 17.6039 86.841 15.9369C85.1741 14.2699 82.9131 13.3334 80.5557 13.3334Z" fill="url(#paint2_linear_367_1850)"/>
<path d="M80.5557 44.4444H62.7779V48.8889C62.7779 50.0676 62.3096 51.1981 61.4761 52.0316C60.6426 52.8651 59.5122 53.3333 58.3334 53.3333C57.1547 53.3333 56.0242 52.8651 55.1907 52.0316C54.3572 51.1981 53.889 50.0676 53.889 48.8889V44.4444H36.1112V48.8889C36.1112 50.0676 35.643 51.1981 34.8095 52.0316C33.976 52.8651 32.8455 53.3333 31.6668 53.3333C30.488 53.3333 29.3576 52.8651 28.5241 52.0316C27.6906 51.1981 27.2223 50.0676 27.2223 48.8889V44.4444H9.44455C7.08707 44.4444 4.82615 43.5079 3.15916 41.8409C1.49217 40.1739 0.555664 37.913 0.555664 35.5555V71.1111C0.555664 73.4686 1.49217 75.7295 3.15916 77.3965C4.82615 79.0635 7.08707 80 9.44455 80H80.5557C82.9131 80 85.1741 79.0635 86.841 77.3965C88.508 75.7295 89.4445 73.4686 89.4445 71.1111V35.5555C89.4445 37.913 88.508 40.1739 86.841 41.8409C85.1741 43.5079 82.9131 44.4444 80.5557 44.4444Z" fill="url(#paint3_linear_367_1850)"/>
<defs>
<linearGradient id="paint0_linear_367_1850" x1="27.2227" y1="6.66667" x2="62.7782" y2="6.66667" gradientUnits="userSpaceOnUse">
<stop stop-color="#0052D4"/>
<stop offset="0.5" stop-color="#4364F7"/>
<stop offset="1" stop-color="#6FB1FC"/>
</linearGradient>
<linearGradient id="paint1_linear_367_1850" x1="27.2227" y1="44.4444" x2="62.7782" y2="44.4444" gradientUnits="userSpaceOnUse">
<stop stop-color="#0052D4"/>
<stop offset="0.5" stop-color="#4364F7"/>
<stop offset="1" stop-color="#6FB1FC"/>
</linearGradient>
<linearGradient id="paint2_linear_367_1850" x1="0.555664" y1="28.8889" x2="89.4445" y2="28.8889" gradientUnits="userSpaceOnUse">
<stop stop-color="#0052D4"/>
<stop offset="0.5" stop-color="#4364F7"/>
<stop offset="1" stop-color="#6FB1FC"/>
</linearGradient>
<linearGradient id="paint3_linear_367_1850" x1="0.555664" y1="57.7778" x2="89.4445" y2="57.7778" gradientUnits="userSpaceOnUse">
<stop stop-color="#0052D4"/>
<stop offset="0.5" stop-color="#4364F7"/>
<stop offset="1" stop-color="#6FB1FC"/>
</linearGradient>
</defs>
</svg>
