<svg width="62" height="60" viewBox="0 0 62 60" fill="none" xmlns="http://www.w3.org/2000/svg">
<path d="M43.6023 8.0911L45.7027 4.49049C46.3028 2.99023 46.0027 1.18993 44.5025 0.289773C43.0022 -0.310329 41.2019 -0.0102779 40.3018 1.48998L38.5015 4.79054C40.3018 5.39064 42.1021 6.59085 43.6023 8.0911ZM18.398 8.0911C19.8983 6.59085 21.3985 5.6907 23.4989 4.79054L21.6986 1.48998C20.7984 -0.0102779 18.9981 -0.310329 17.4979 0.289773C15.9976 0.889876 15.6976 2.99023 16.2977 4.49049L18.398 8.0911ZM12.9971 20.9933H49.0033V26.9943H12.9971V20.9933Z" fill="url(#paint0_linear_234_861)"/>
<path opacity="0.5" d="M31 2.99023C21.0983 2.99023 12.9969 11.0916 12.9969 20.9933H49.0031C49.0031 11.0916 40.9017 2.99023 31 2.99023ZM58.0046 20.9933C56.2043 20.9933 55.0041 22.1935 55.0041 23.9938V35.9959C55.0041 37.7962 56.2043 38.9964 58.0046 38.9964C59.8049 38.9964 61.0051 37.7962 61.0051 35.9959V23.9938C61.0051 22.1935 59.8049 20.9933 58.0046 20.9933ZM3.99539 20.9933C2.19508 20.9933 0.994873 22.1935 0.994873 23.9938V35.9959C0.994873 37.7962 2.19508 38.9964 3.99539 38.9964C5.79569 38.9964 6.9959 37.7962 6.9959 35.9959V23.9938C6.9959 22.1935 5.79569 20.9933 3.99539 20.9933ZM12.9969 44.9974C12.9969 46.7977 14.1971 47.9979 15.9974 47.9979H21.9985V56.9995C21.9985 58.7998 23.1987 60 24.999 60C26.7993 60 27.9995 58.7998 27.9995 56.9995V47.9979H34.0005V56.9995C34.0005 58.7998 35.2007 60 37.001 60C38.8013 60 40.0015 58.7998 40.0015 56.9995V47.9979H46.0026C47.8029 47.9979 49.0031 46.7977 49.0031 44.9974V26.9943H12.9969V44.9974Z" fill="url(#paint1_linear_234_861)"/>
<defs>
<linearGradient id="paint0_linear_234_861" x1="12.9971" y1="13.4972" x2="49.0033" y2="13.4972" gradientUnits="userSpaceOnUse">
<stop stop-color="#0052D4"/>
<stop offset="0.5" stop-color="#4364F7"/>
<stop offset="1" stop-color="#6FB1FC"/>
</linearGradient>
<linearGradient id="paint1_linear_234_861" x1="0.994873" y1="31.4951" x2="61.0051" y2="31.4951" gradientUnits="userSpaceOnUse">
<stop stop-color="#0052D4"/>
<stop offset="0.5" stop-color="#4364F7"/>
<stop offset="1" stop-color="#6FB1FC"/>
</linearGradient>
</defs>
</svg>
