<svg width="80" height="80" viewBox="0 0 80 80" fill="none" xmlns="http://www.w3.org/2000/svg">
<path opacity="0.25" d="M39.9999 48.6105C39.3094 48.6105 38.6345 48.43 38.0382 48.0887L2.72717 27.6946C2.13078 27.3502 1.63554 26.855 1.29122 26.2585C0.946894 25.6621 0.765625 24.9856 0.765625 24.2969C0.765625 23.6082 0.946894 22.9317 1.29122 22.3353C1.63554 21.7389 2.13078 21.2436 2.72717 20.8992L38.0382 0.520837C39.2544 -0.173612 40.7453 -0.173612 41.9616 0.520837L77.2726 20.8992C77.869 21.2436 78.3642 21.7389 78.7086 22.3353C79.0529 22.9317 79.2342 23.6082 79.2342 24.2969C79.2342 24.9856 79.0529 25.6621 78.7086 26.2585C78.3642 26.855 77.869 27.3502 77.2726 27.6946L41.9616 48.0887C41.3647 48.4313 40.6882 48.6113 39.9999 48.6105Z" fill="url(#paint0_linear_367_700)"/>
<path opacity="0.5" d="M77.2726 36.593L69.567 32.1438L41.9616 48.0887C40.7453 48.787 39.2544 48.787 38.0382 48.0887L10.4328 32.1438L2.72717 36.593C2.13078 36.9374 1.63554 37.4326 1.29122 38.0291C0.946894 38.6255 0.765625 39.302 0.765625 39.9907C0.765625 40.6794 0.946894 41.3559 1.29122 41.9523C1.63554 42.5487 2.13078 43.044 2.72717 43.3884L38.0382 63.7825C39.2544 64.4808 40.7453 64.4808 41.9616 63.7825L77.2726 43.3884C77.869 43.044 78.3642 42.5487 78.7086 41.9523C79.0529 41.3559 79.2342 40.6794 79.2342 39.9907C79.2342 39.302 79.0529 38.6255 78.7086 38.0291C78.3642 37.4326 77.869 36.9374 77.2726 36.593Z" fill="url(#paint1_linear_367_700)"/>
<path d="M77.2726 52.2867L69.567 47.8375L41.9616 63.7824C40.7453 64.4808 39.2544 64.4808 38.0382 63.7824L10.4328 47.8375L2.72717 52.2867C2.13078 52.6311 1.63554 53.1264 1.29122 53.7228C0.946894 54.3192 0.765625 54.9957 0.765625 55.6844C0.765625 56.3731 0.946894 57.0496 1.29122 57.646C1.63554 58.2425 2.13078 58.7377 2.72717 59.0821L38.0382 79.4762C39.2544 80.1745 40.7453 80.1745 41.9616 79.4762L77.2726 59.0821C77.869 58.7377 78.3642 58.2425 78.7086 57.646C79.0529 57.0496 79.2342 56.3731 79.2342 55.6844C79.2342 54.9957 79.0529 54.3192 78.7086 53.7228C78.3642 53.1264 77.869 52.6311 77.2726 52.2867Z" fill="url(#paint2_linear_367_700)"/>
<defs>
<linearGradient id="paint0_linear_367_700" x1="0.765625" y1="24.3052" x2="79.2342" y2="24.3052" gradientUnits="userSpaceOnUse">
<stop stop-color="#0052D4"/>
<stop offset="0.5" stop-color="#4364F7"/>
<stop offset="1" stop-color="#6FB1FC"/>
</linearGradient>
<linearGradient id="paint1_linear_367_700" x1="0.765625" y1="48.225" x2="79.2342" y2="48.225" gradientUnits="userSpaceOnUse">
<stop stop-color="#0052D4"/>
<stop offset="0.5" stop-color="#4364F7"/>
<stop offset="1" stop-color="#6FB1FC"/>
</linearGradient>
<linearGradient id="paint2_linear_367_700" x1="0.765625" y1="63.9187" x2="79.2342" y2="63.9187" gradientUnits="userSpaceOnUse">
<stop stop-color="#0052D4"/>
<stop offset="0.5" stop-color="#4364F7"/>
<stop offset="1" stop-color="#6FB1FC"/>
</linearGradient>
</defs>
</svg>
