<svg width="120" height="120" viewBox="0 0 120 120" fill="none" xmlns="http://www.w3.org/2000/svg">
<path opacity="0.25" d="M59.9977 3.59985C48.8428 3.59985 37.9384 6.90765 28.6635 13.105C19.3886 19.3023 12.1597 28.1107 7.89087 38.4165C3.62209 48.7222 2.50519 60.0624 4.68139 71.0029C6.8576 81.9435 12.2292 91.993 20.1169 99.8806C28.0045 107.768 38.0541 113.14 48.9946 115.316C59.9351 117.492 71.2753 116.375 81.581 112.107C91.8868 107.838 100.695 100.609 106.893 91.334C113.09 82.0591 116.398 71.1547 116.398 59.9998C116.398 45.0416 110.456 30.6961 99.8785 20.119C89.3014 9.54198 74.9559 3.59985 59.9977 3.59985Z" fill="url(#paint0_linear_367_1697)"/>
<path d="M60.8761 64.3739L45.8761 107.964C55.948 110.929 66.6976 110.65 76.6021 107.166C76.4622 106.947 76.3418 106.716 76.2421 106.476L60.8761 64.3739ZM9.99609 59.9939C9.99497 69.3848 12.6383 78.5862 17.6235 86.5446C22.6086 94.503 29.7341 100.897 38.1841 104.994L14.3281 39.6599C11.4708 46.0599 9.9967 52.991 10.0021 59.9999L9.99609 59.9939Z" fill="url(#paint1_linear_367_1697)"/>
<path d="M93.7566 57.4803C93.6906 52.5887 92.2632 47.8122 89.6346 43.6863C86.947 40.3061 85.2463 36.2486 84.7206 31.9623C84.6609 29.6719 85.5114 27.4512 87.0859 25.7868C88.6604 24.1223 90.8305 23.1498 93.1206 23.0823C93.3426 23.0823 93.5526 23.1123 93.7626 23.1243C88.4244 18.2346 82.0877 14.5627 75.1909 12.3626C68.2941 10.1625 61.0017 9.48675 53.8181 10.382C46.6344 11.2772 39.7309 13.7222 33.585 17.5477C27.4391 21.3731 22.1975 26.4879 18.2227 32.5383C19.3987 32.5743 20.5027 32.5983 21.4447 32.5983C26.6707 32.5983 34.7647 31.9623 34.7647 31.9623C35.3105 31.9193 35.851 32.0949 36.2673 32.4505C36.6837 32.8061 36.9417 33.3125 36.9846 33.8583C37.0276 34.4041 36.852 34.9446 36.4964 35.361C36.1409 35.7773 35.6345 36.0353 35.0886 36.0783C35.0886 36.0783 32.3767 36.3963 29.3647 36.5583L47.5746 90.7143L58.5186 57.8943L50.7246 36.5583C48.0306 36.3963 45.4806 36.0783 45.4806 36.0783C44.9348 36.0361 44.4281 35.7789 44.072 35.3631C43.7159 34.9473 43.5395 34.4071 43.5816 33.8613C43.6238 33.3155 43.8811 32.8088 44.2969 32.4526C44.7126 32.0965 45.2528 31.9201 45.7986 31.9623C45.7986 31.9623 54.0546 32.5983 58.9686 32.5983C64.1946 32.5983 72.2946 31.9623 72.2946 31.9623C72.8405 31.9201 73.3807 32.0965 73.7964 32.4526C74.2122 32.8088 74.4695 33.3155 74.5116 33.8613C74.5538 34.4071 74.3774 34.9473 74.0213 35.3631C73.6652 35.7789 73.1585 36.0361 72.6126 36.0783C72.6126 36.0783 69.9006 36.3963 66.8946 36.5583L84.9606 90.3003L90.1206 73.9563C92.135 68.6705 93.3602 63.117 93.7566 57.4743V57.4803Z" fill="url(#paint2_linear_367_1697)"/>
<path d="M60 0C48.1331 0 36.5327 3.51894 26.6658 10.1118C16.7989 16.7047 9.10851 26.0754 4.56725 37.039C0.025997 48.0025 -1.1622 60.0665 1.15291 71.7054C3.46802 83.3443 9.18247 94.0352 17.5736 102.426C25.9648 110.818 36.6557 116.532 48.2946 118.847C59.9335 121.162 71.9974 119.974 82.961 115.433C93.9246 110.891 103.295 103.201 109.888 93.3342C116.481 83.4672 120 71.8669 120 60C120 52.1207 118.448 44.3185 115.433 37.039C112.417 29.7594 107.998 23.1451 102.426 17.5736C96.8549 12.0021 90.2405 7.58251 82.961 4.56723C75.6815 1.55195 67.8793 0 60 0ZM106.77 91.53C100.649 100.599 92.0285 107.698 81.954 111.966C73.3119 115.624 63.8928 117.064 54.5525 116.157C45.2121 115.249 36.2465 112.023 28.47 106.77C19.4001 100.648 12.2995 92.0283 8.02802 81.954C4.3701 73.3116 2.92994 63.8921 3.83842 54.5515C4.74691 45.2109 7.97525 36.2455 13.23 28.47C19.3505 19.3989 27.9708 12.298 38.046 8.028C46.6886 4.37115 56.108 2.93157 65.4483 3.84004C74.7887 4.74851 83.754 7.97623 91.53 13.23C100.6 19.3517 107.7 27.9716 111.972 38.046C115.63 46.6884 117.07 56.1079 116.162 65.4485C115.253 74.789 112.025 83.7544 106.77 91.53Z" fill="url(#paint3_linear_367_1697)"/>
<path d="M104.211 41.1537C104.124 47.3148 102.832 53.3993 100.407 59.0637L85.1367 103.212C96.3999 96.66 104.661 85.9705 108.161 73.4192C111.66 60.8679 110.123 47.4462 103.875 36.0117C104.102 37.7162 104.214 39.4341 104.211 41.1537Z" fill="url(#paint4_linear_367_1697)"/>
<defs>
<linearGradient id="paint0_linear_367_1697" x1="3.59766" y1="59.9999" x2="116.398" y2="59.9999" gradientUnits="userSpaceOnUse">
<stop stop-color="#0052D4"/>
<stop offset="0.5" stop-color="#4364F7"/>
<stop offset="1" stop-color="#6FB1FC"/>
</linearGradient>
<linearGradient id="paint1_linear_367_1697" x1="9.99609" y1="74.8301" x2="76.6021" y2="74.8301" gradientUnits="userSpaceOnUse">
<stop stop-color="#0052D4"/>
<stop offset="0.5" stop-color="#4364F7"/>
<stop offset="1" stop-color="#6FB1FC"/>
</linearGradient>
<linearGradient id="paint2_linear_367_1697" x1="18.2227" y1="50.3563" x2="93.7626" y2="50.3563" gradientUnits="userSpaceOnUse">
<stop stop-color="#0052D4"/>
<stop offset="0.5" stop-color="#4364F7"/>
<stop offset="1" stop-color="#6FB1FC"/>
</linearGradient>
<linearGradient id="paint3_linear_367_1697" x1="0" y1="60" x2="120" y2="60" gradientUnits="userSpaceOnUse">
<stop stop-color="#0052D4"/>
<stop offset="0.5" stop-color="#4364F7"/>
<stop offset="1" stop-color="#6FB1FC"/>
</linearGradient>
<linearGradient id="paint4_linear_367_1697" x1="85.1367" y1="69.6117" x2="109.998" y2="69.6117" gradientUnits="userSpaceOnUse">
<stop stop-color="#0052D4"/>
<stop offset="0.5" stop-color="#4364F7"/>
<stop offset="1" stop-color="#6FB1FC"/>
</linearGradient>
</defs>
</svg>
